<?xml version="1.0" standalone="no"?>
<!DOCTYPE svg PUBLIC "-//W3C//DTD SVG 20010904//EN"
 "http://www.w3.org/TR/2001/REC-SVG-20010904/DTD/svg10.dtd">
<svg version="1.0" xmlns="http://www.w3.org/2000/svg"
 width="648.000000pt" height="648.000000pt" viewBox="0 0 648.000000 648.000000"
 preserveAspectRatio="xMidYMid meet">
<metadata>
Created by potrace 1.14, written by Peter Selinger 2001-2017
</metadata>
<g transform="translate(0.000000,648.000000) scale(0.100000,-0.100000)"
fill="#000000" stroke="none">
<path d="M3091 6394 c-146 -86 -199 -117 -260 -150 -19 -11 -40 -23 -45 -27
-26 -19 -408 -237 -417 -237 -5 0 -9 -4 -9 -10 0 -5 -4 -10 -10 -10 -5 0 -70
-36 -146 -80 -75 -44 -138 -80 -141 -80 -2 0 -11 -6 -18 -14 -12 -11 13 -29
161 -115 96 -55 179 -101 184 -101 6 0 10 -4 10 -10 0 -5 4 -10 9 -10 5 0 42
-20 82 -44 74 -43 439 -254 514 -296 22 -13 52 -30 67 -39 15 -9 58 -35 97
-58 l70 -41 93 55 c51 30 116 67 143 83 126 70 150 84 155 90 3 3 23 14 45 25
22 11 42 22 45 25 3 3 17 12 32 20 15 8 125 71 244 140 119 69 228 132 243
140 14 8 68 40 119 69 l94 55 -24 18 c-12 9 -28 18 -35 18 -6 0 -13 3 -15 8
-1 4 -19 16 -38 26 -50 27 -217 124 -271 158 -25 15 -51 28 -57 28 -7 0 -12 5
-12 10 0 6 -5 10 -11 10 -6 0 -63 31 -127 69 -64 38 -134 78 -154 90 -47 26
-73 41 -228 131 -69 40 -136 80 -150 87 -14 8 -38 23 -55 33 -16 10 -32 18
-35 18 -3 0 -70 -38 -149 -84z"/>
<path d="M4640 5565 c-52 -30 -102 -59 -110 -64 -8 -6 -37 -22 -65 -37 -27
-14 -55 -30 -61 -35 -6 -5 -31 -20 -55 -33 -24 -13 -60 -32 -79 -43 -151 -86
-604 -345 -640 -365 -90 -51 -110 -63 -110 -69 0 -3 15 -13 33 -22 35 -19 71
-39 132 -78 22 -13 51 -30 65 -37 14 -7 39 -20 55 -31 17 -10 47 -28 68 -40
20 -11 52 -29 70 -40 17 -10 168 -98 335 -195 167 -97 307 -176 312 -176 5 0
15 -6 22 -12 8 -7 23 -18 33 -24 11 -6 34 -19 51 -29 l31 -18 214 123 c118 68
232 132 254 144 22 12 42 24 43 29 2 4 7 7 12 7 4 0 61 31 127 68 65 37 125
71 133 75 8 4 33 18 55 32 22 13 64 37 93 52 28 15 52 31 52 35 0 4 5 8 12 8
6 0 47 23 90 50 43 28 82 50 87 50 4 0 15 8 24 18 15 16 12 20 -51 52 -36 19
-71 39 -77 43 -26 21 -175 104 -178 101 -2 -3 -10 2 -17 11 -7 8 -16 15 -21
15 -5 0 -38 18 -74 40 -36 22 -68 40 -71 40 -3 0 -18 8 -32 18 -15 11 -52 32
-82 49 -30 17 -72 40 -92 52 -21 11 -55 31 -75 42 -21 12 -99 56 -173 99 -74
43 -153 88 -175 100 -22 12 -47 28 -55 36 -13 11 -29 5 -110 -41z"/>
<path d="M1655 5560 c-44 -27 -85 -49 -92 -50 -6 0 -13 -4 -15 -8 -1 -5 -28
-22 -58 -39 -30 -16 -136 -76 -235 -133 -206 -118 -360 -205 -425 -242 -161
-91 -267 -153 -277 -162 -10 -9 -1 -17 35 -36 26 -13 49 -27 52 -30 3 -3 25
-16 50 -29 72 -39 83 -46 94 -54 26 -18 390 -227 398 -227 4 0 8 -4 8 -10 0
-5 4 -10 9 -10 10 0 279 -153 298 -170 7 -5 15 -10 18 -10 3 0 22 -11 43 -23
20 -13 64 -39 97 -57 33 -18 68 -38 77 -44 13 -8 27 -5 60 14 24 13 53 29 65
35 13 5 23 13 23 18 0 4 4 7 10 7 5 0 64 32 132 71 67 40 136 80 153 89 16 9
111 64 210 122 99 57 269 156 378 218 108 63 197 117 197 121 0 4 -15 14 -32
23 -18 9 -51 27 -73 41 -22 14 -47 28 -55 32 -8 4 -87 49 -174 100 -87 51
-160 93 -162 93 -2 0 -69 39 -151 86 -81 47 -166 96 -188 109 -22 12 -57 32
-77 44 -79 45 -109 61 -175 97 -37 21 -77 43 -88 51 -30 20 -44 16 -130 -37z"/>
<path d="M3020 4633 c-118 -69 -233 -135 -255 -147 -22 -13 -148 -85 -280
-161 -224 -128 -266 -153 -402 -230 -29 -17 -53 -32 -53 -35 0 -3 51 -35 113
-71 125 -75 398 -233 467 -271 25 -14 128 -74 230 -133 102 -59 228 -132 280
-162 52 -30 100 -59 105 -64 7 -5 43 10 90 38 44 25 100 57 125 71 25 14 62
36 82 49 21 12 42 23 48 23 5 0 10 4 10 8 0 4 15 15 33 23 44 21 101 53 107
60 3 3 12 9 20 12 8 4 31 17 50 28 19 12 98 57 174 101 194 112 205 118 256
147 25 14 47 29 48 33 2 4 8 8 13 8 10 0 169 89 169 94 0 2 -35 23 -77 48 -43
25 -129 75 -191 112 -63 36 -118 66 -123 66 -5 0 -9 5 -9 10 0 6 -9 10 -20 10
-11 0 -20 4 -20 8 0 5 -15 16 -32 25 -18 9 -40 21 -48 26 -8 5 -51 30 -95 56
-44 25 -87 50 -95 55 -8 6 -22 13 -30 17 -8 4 -31 16 -50 28 -19 12 -55 33
-80 47 -25 14 -112 64 -193 112 -82 47 -149 85 -150 85 -1 -1 -99 -58 -217
-126z"/>
<path d="M400 3976 l0 -704 141 -81 c78 -45 146 -81 150 -81 5 0 9 -3 9 -8 0
-4 17 -15 38 -25 20 -10 79 -42 131 -72 51 -30 98 -55 102 -55 5 0 9 -4 9 -10
0 -5 4 -10 9 -10 9 0 379 -209 441 -249 14 -8 27 -16 30 -16 3 0 34 -17 69
-38 35 -21 68 -39 74 -40 15 -3 17 1381 2 1393 -11 9 -222 132 -246 143 -8 4
-32 18 -54 32 -22 14 -49 30 -60 35 -11 6 -38 22 -60 35 -22 14 -51 31 -65 37
-14 7 -32 17 -40 24 -8 6 -42 26 -75 44 -33 17 -64 35 -70 40 -9 6 -283 165
-385 222 -19 11 -39 23 -45 27 -5 4 -31 20 -57 35 l-48 27 0 -705z"/>
<path d="M5895 4573 c-99 -57 -189 -108 -200 -114 -11 -5 -33 -18 -50 -29 -16
-11 -48 -30 -70 -42 -22 -12 -49 -28 -60 -35 -11 -7 -32 -18 -47 -25 -16 -7
-28 -16 -28 -20 0 -4 -4 -8 -10 -8 -5 0 -55 -27 -111 -60 -55 -33 -105 -60
-110 -60 -5 0 -9 -4 -9 -8 0 -4 -12 -13 -27 -19 -16 -6 -39 -19 -53 -27 -14
-9 -77 -46 -140 -84 l-116 -67 1 -693 c0 -380 4 -693 8 -693 7 -2 412 225 487
272 12 7 180 103 313 178 16 9 36 21 45 26 9 6 72 42 140 80 68 39 144 82 170
97 l47 26 3 351 c1 192 1 509 0 703 l-3 354 -180 -103z"/>
<path d="M1890 3757 c-3 -321 -1 -1339 2 -1342 6 -5 472 -277 588 -343 19 -10
165 -94 323 -186 159 -91 292 -166 295 -166 5 0 8 1365 3 1391 0 3 -11 11 -23
17 -13 6 -41 23 -63 36 -22 14 -62 38 -90 54 -27 16 -67 38 -87 50 -46 27
-104 60 -138 80 -14 7 -41 24 -61 35 -20 12 -70 41 -110 65 -41 23 -81 47 -89
52 -86 51 -150 88 -240 138 -25 14 -68 40 -97 59 -29 18 -54 33 -57 33 -2 0
-38 20 -80 45 l-76 45 0 -63z"/>
<path d="M4466 3744 c-60 -36 -127 -75 -150 -88 -22 -13 -129 -74 -236 -136
-107 -62 -211 -121 -230 -132 -19 -11 -72 -42 -118 -69 -45 -27 -85 -49 -89
-49 -4 0 -14 -6 -22 -14 -9 -8 -38 -26 -66 -41 -27 -15 -79 -44 -115 -65 l-64
-39 -1 -691 c0 -381 3 -694 7 -696 4 -3 29 7 55 22 67 38 202 116 238 137 16
10 42 23 58 30 15 6 27 15 27 19 0 4 5 8 10 8 6 0 45 21 88 48 42 26 88 53
102 59 14 7 43 24 65 38 22 13 49 29 60 35 11 6 38 22 60 36 22 14 52 30 68
37 15 6 27 15 27 19 0 4 4 8 10 8 5 0 65 33 132 73 68 40 142 84 166 97 28 16
42 31 43 44 5 201 -2 1371 -8 1372 -4 1 -57 -27 -117 -62z"/>
<path d="M402 2264 l3 -706 116 -67 c64 -37 122 -71 130 -74 16 -8 46 -25 229
-132 74 -43 155 -89 180 -103 25 -14 81 -46 125 -72 44 -25 87 -49 95 -53 8
-4 33 -19 55 -32 22 -14 54 -33 70 -41 17 -8 39 -21 50 -27 47 -28 154 -87
157 -87 2 0 3 313 3 696 l0 697 -35 23 c-19 12 -41 23 -47 23 -7 1 -13 6 -13
11 0 6 -5 10 -10 10 -6 0 -79 40 -163 89 -84 49 -168 98 -187 109 -19 11 -115
66 -213 123 -98 57 -195 113 -215 125 -20 11 -53 30 -72 42 -19 12 -42 25 -50
29 -8 4 -59 33 -113 65 l-97 57 2 -705z"/>
<path d="M5955 2896 c-60 -35 -130 -74 -155 -87 -25 -12 -47 -25 -50 -29 -5
-5 -226 -135 -325 -190 -40 -22 -158 -92 -265 -155 -30 -18 -82 -48 -115 -66
-33 -18 -66 -39 -73 -46 -7 -7 -19 -13 -25 -14 -7 0 -28 -11 -47 -23 l-35 -23
0 -697 c0 -383 2 -696 5 -696 3 0 56 29 118 65 61 36 116 65 122 65 5 0 10 4
10 9 0 5 8 11 18 14 9 3 40 19 67 35 108 63 462 266 505 290 25 14 102 58 172
98 69 41 131 74 137 74 6 0 11 4 11 8 0 5 11 14 25 20 l25 12 0 700 c0 385 -3
700 -7 700 -5 0 -57 -29 -118 -64z"/>
<path d="M1890 2098 c-1 -4 -1 -1370 0 -1385 0 -7 30 -29 68 -50 37 -20 69
-41 70 -45 2 -4 7 -8 12 -8 5 0 48 -23 97 -51 48 -29 107 -62 130 -75 23 -13
92 -53 153 -89 61 -36 113 -65 114 -65 2 0 44 -24 93 -54 49 -29 109 -64 133
-78 106 -59 239 -137 270 -156 14 -9 28 -17 32 -17 3 0 10 -3 14 -7 28 -28 29
8 28 684 -1 381 -2 696 -3 701 0 4 -8 7 -16 7 -8 0 -15 5 -15 10 0 6 -4 10 -9
10 -5 0 -67 34 -137 76 -71 42 -147 86 -169 99 -77 43 -111 62 -215 124 -58
33 -112 66 -120 71 -8 6 -22 13 -30 17 -14 6 -248 142 -280 163 -35 22 -211
120 -215 120 -3 0 -5 -1 -5 -2z"/>
<path d="M4550 2081 c-21 -16 -57 -36 -165 -95 -11 -6 -22 -13 -25 -16 -3 -3
-16 -11 -30 -18 -14 -7 -41 -22 -60 -33 -89 -53 -410 -239 -414 -239 -2 0 -51
-29 -109 -64 -58 -35 -109 -65 -114 -67 -4 -2 -54 -31 -111 -64 -57 -33 -113
-65 -125 -72 l-22 -12 0 -696 c0 -382 4 -695 8 -695 7 0 78 38 222 118 16 9
53 32 83 50 29 17 54 32 56 32 2 0 45 25 95 55 51 30 94 55 96 55 4 0 72 40
130 78 11 6 27 15 35 19 8 3 39 21 68 40 29 18 54 33 56 33 2 0 48 26 103 58
54 32 135 80 181 107 81 48 82 48 82 89 1 80 1 1292 1 1324 -1 37 -6 38 -41
13z"/>
</g>
</svg>
