<svg xmlns="http://www.w3.org/2000/svg" viewBox="0 0 317.53 81"><defs><style>.cls-1{fill:#fff;}.cls-2{fill:#e04125;}.cls-3{fill:#3a3938;}</style></defs><g id="Ebene_2" data-name="Ebene 2"><g id="Ebene_1-2" data-name="Ebene 1"><g id="Ebene_2-2" data-name="Ebene 2"><g id="Ebene_1-2-2" data-name="Ebene 1-2"><path class="cls-1" d="M90.73,56.8V26.63h4.74a24.21,24.21,0,0,1,6,.54,8,8,0,0,1,4.31,2.66,7,7,0,0,1,1.6,4.6,6.77,6.77,0,0,1-.72,3.12,7.9,7.9,0,0,1-2.37,2.64,9.5,9.5,0,0,1,4,3.23A8.17,8.17,0,0,1,109.62,48a8.64,8.64,0,0,1-1.31,4.64,8.49,8.49,0,0,1-3.39,3.12,13.08,13.08,0,0,1-5.73,1Zm5.74-24.69v6.36h1.26a4.65,4.65,0,0,0,3.12-.89,3,3,0,0,0,1-2.4,2.79,2.79,0,0,0-1-2.24A4.46,4.46,0,0,0,98,32.11Zm0,11.48v7.73h1.44q3.59,0,4.83-.9A3,3,0,0,0,104,47.8a3.69,3.69,0,0,0-1.46-3.08c-1-.75-2.59-1.13-4.85-1.13Z"/><path class="cls-1" d="M131,34.49h5.6V56.8H131V54.44a11.25,11.25,0,0,1-3.29,2.25,9.34,9.34,0,0,1-3.58.68A9.92,9.92,0,0,1,116.61,54a11.7,11.7,0,0,1-3.16-8.34,12,12,0,0,1,3.06-8.47,9.72,9.72,0,0,1,7.41-3.3,9.38,9.38,0,0,1,3.77.76A10.46,10.46,0,0,1,131,37Zm-5.89,4.59a5.63,5.63,0,0,0-4.31,1.84,6.58,6.58,0,0,0-1.72,4.7,6.63,6.63,0,0,0,1.75,4.76,5.62,5.62,0,0,0,4.3,1.87,5.76,5.76,0,0,0,4.38-1.84,6.7,6.7,0,0,0,1.73-4.81,6.55,6.55,0,0,0-1.73-4.71,5.88,5.88,0,0,0-4.45-1.81Z"/><path class="cls-1" d="M155.86,37.6l-3.46,3.47C151,39.68,149.71,39,148.56,39a2.39,2.39,0,0,0-1.47.4,1.19,1.19,0,0,0-.54,1,1.29,1.29,0,0,0,.34.83,6,6,0,0,0,1.67,1l2.05,1a12,12,0,0,1,4.45,3.27,6.8,6.8,0,0,1-1,8.86,8.39,8.39,0,0,1-5.85,2,9.31,9.31,0,0,1-7.8-3.81l3.45-3.75a7.79,7.79,0,0,0,2.3,1.85,5.15,5.15,0,0,0,2.35.71,2.86,2.86,0,0,0,1.79-.53A1.53,1.53,0,0,0,151,50.6c0-.86-.81-1.71-2.44-2.53l-1.88-.94q-5.42-2.73-5.42-6.83a5.94,5.94,0,0,1,2-4.52,7.41,7.41,0,0,1,5.22-1.88,9.11,9.11,0,0,1,4.09,1A8.89,8.89,0,0,1,155.86,37.6Z"/><path class="cls-1" d="M183,47.26H165a6,6,0,0,0,2.08,3.79,6.61,6.61,0,0,0,4.32,1.4,7.46,7.46,0,0,0,5.39-2.19l4.72,2.21a11.15,11.15,0,0,1-4.22,3.7,13.23,13.23,0,0,1-5.85,1.2,11.55,11.55,0,0,1-8.55-3.31,11.27,11.27,0,0,1-3.3-8.29,11.63,11.63,0,0,1,3.29-8.48,11,11,0,0,1,8.25-3.38,11.47,11.47,0,0,1,8.58,3.38A12.2,12.2,0,0,1,183,46.2Zm-5.6-4.41a5.61,5.61,0,0,0-2.19-3,6.28,6.28,0,0,0-3.79-1.17A6.78,6.78,0,0,0,167.35,40a7.35,7.35,0,0,0-2,2.89Z"/><path class="cls-1" d="M187,25.87h5.6V56.8H187Z"/><path class="cls-1" d="M220,47.26H202a6,6,0,0,0,2.08,3.79,6.57,6.57,0,0,0,4.31,1.4,7.48,7.48,0,0,0,5.4-2.19l4.72,2.21a11.18,11.18,0,0,1-4.23,3.7,13.22,13.22,0,0,1-5.84,1.2,11.57,11.57,0,0,1-8.56-3.31,11.27,11.27,0,0,1-3.3-8.29,11.63,11.63,0,0,1,3.29-8.48,11.1,11.1,0,0,1,8.26-3.38,11.46,11.46,0,0,1,8.57,3.38A12.2,12.2,0,0,1,220,46.2Zm-5.6-4.41a5.68,5.68,0,0,0-2.18-3,6.41,6.41,0,0,0-3.79-1.17A6.71,6.71,0,0,0,204.31,40a7.35,7.35,0,0,0-2.06,2.89Z"/><path class="cls-1" d="M241,25.87h5.6V56.8H241V54.44a11.06,11.06,0,0,1-3.29,2.25,9.29,9.29,0,0,1-3.57.68A9.92,9.92,0,0,1,226.65,54a11.69,11.69,0,0,1-3.15-8.34,12,12,0,0,1,3.05-8.47,9.73,9.73,0,0,1,7.42-3.3,9.55,9.55,0,0,1,3.77.76A10.25,10.25,0,0,1,241,37Zm-5.88,13.21a5.67,5.67,0,0,0-4.32,1.84,6.61,6.61,0,0,0-1.71,4.7,6.69,6.69,0,0,0,1.74,4.76,5.66,5.66,0,0,0,4.31,1.87,5.74,5.74,0,0,0,4.37-1.84,6.71,6.71,0,0,0,1.74-4.81,6.46,6.46,0,0,0-1.74-4.71,5.83,5.83,0,0,0-4.4-1.81Z"/><path class="cls-1" d="M268.74,34.49h5.58V53.6c0,3.77-.76,6.54-2.28,8.33q-3.06,3.6-9.21,3.61a16.13,16.13,0,0,1-5.51-.82,9.58,9.58,0,0,1-6-6.28h6.17a5.18,5.18,0,0,0,2.11,1.43,8.83,8.83,0,0,0,3.06.48,8.09,8.09,0,0,0,3.63-.7,4.28,4.28,0,0,0,1.94-1.8,9.37,9.37,0,0,0,.56-3.82,9.16,9.16,0,0,1-3.1,2.12,9.8,9.8,0,0,1-3.67.65,10.09,10.09,0,0,1-7.59-3.24,11.41,11.41,0,0,1-3.09-8.2,11.46,11.46,0,0,1,3.28-8.54,9.82,9.82,0,0,1,7.09-2.91,9.44,9.44,0,0,1,3.64.71A11.52,11.52,0,0,1,268.74,37Zm-5.8,4.65a5.8,5.8,0,0,0-4.37,1.78,6.15,6.15,0,0,0-1.72,4.46A6.2,6.2,0,0,0,258.61,50,6,6,0,0,0,263,51.73,5.75,5.75,0,0,0,267.3,50a6.28,6.28,0,0,0,1.7-4.57,6.2,6.2,0,0,0-1.71-4.53A5.82,5.82,0,0,0,262.94,39.14Z"/><path class="cls-1" d="M302.33,47.26h-18a6,6,0,0,0,2.08,3.79,6.57,6.57,0,0,0,4.31,1.4,7.48,7.48,0,0,0,5.4-2.19l4.71,2.21a11.07,11.07,0,0,1-4.22,3.7,13.22,13.22,0,0,1-5.84,1.2,11.52,11.52,0,0,1-8.56-3.31,11.27,11.27,0,0,1-3.3-8.29,11.63,11.63,0,0,1,3.29-8.48,11.1,11.1,0,0,1,8.26-3.38A11.46,11.46,0,0,1,299,37.29a12.2,12.2,0,0,1,3.3,8.91Zm-5.6-4.41a5.68,5.68,0,0,0-2.18-3,6.41,6.41,0,0,0-3.79-1.17A6.68,6.68,0,0,0,286.65,40a7.35,7.35,0,0,0-2.06,2.89Z"/><path class="cls-1" d="M305.55,34.49h4.8V37.3a6,6,0,0,1,2.07-2.53,4.94,4.94,0,0,1,2.83-.86,5.35,5.35,0,0,1,2.28.58l-1.75,4.82a3.74,3.74,0,0,0-1.62-.5,2.58,2.58,0,0,0-2.18,1.6c-.6,1.07-.89,3.16-.89,6.28V56.78h-5.56Z"/><polygon class="cls-2" points="15.2 52.7 15.2 70.2 0 61.5 0 43.9 6.9 47.9 15.2 52.7"/><polygon class="cls-2" points="33.8 63.5 33.8 81 20.3 73.2 18.6 72.2 18.6 54.7 18.7 54.7 32.1 62.5 33.8 63.5"/><polygon class="cls-2" points="52.4 54.7 52.4 72.2 50.7 73.2 39.7 79.6 37.2 81 37.2 63.5 38.9 62.5 52.4 54.7"/><polygon class="cls-2" points="71 43.9 71 61.5 55.8 70.2 55.8 52.7 68.2 45.5 71 43.9"/><polygon class="cls-3" points="15.2 31.3 15.2 48.8 0 40.1 0 22.5 6.9 26.5 15.2 31.3"/><polygon class="cls-3" points="33.8 42.1 33.8 59.6 20.3 51.8 18.6 50.8 18.6 33.3 18.7 33.3 32.1 41.1 33.8 42.1"/><polygon class="cls-3" points="52.4 33.3 52.4 50.8 50.7 51.8 39.7 58.2 37.2 59.6 37.2 42.1 38.9 41.1 52.4 33.3"/><polygon class="cls-3" points="71 22.5 71 40.1 55.8 48.8 55.8 31.3 68.2 24.1 71 22.5"/><polygon class="cls-3" points="69.3 19.5 66.5 21.2 55.8 27.3 54.1 28.3 52.4 27.3 51.5 26.8 38.9 19.5 52.4 11.8 54.1 10.8 55.8 11.8 69.3 19.5"/><polygon class="cls-3" points="50.7 8.8 37.2 16.6 35.5 17.6 33.8 16.6 20.3 8.8 33.8 1 35.5 0 37.2 1 50.7 8.8"/><polygon class="cls-3" points="50.7 30.3 37.2 38.1 35.5 39.1 33.8 38.1 20.3 30.3 20.3 30.3 21.4 29.6 33.8 22.5 34.5 22.1 35.5 21.5 37.2 22.5 37.2 22.5 49.8 29.8 50.7 30.3"/><polygon class="cls-3" points="32.1 19.5 16.9 28.3 15.3 27.4 8.6 23.5 1.7 19.5 15.2 11.8 15.3 11.7 16.9 10.8 18.6 11.8 18.7 11.8 32.1 19.5"/></g></g></g></g></svg>